<svg xmlns="http://www.w3.org/2000/svg" width="919" height="417" viewBox="0 0 919 417">
<g>
<path d="M 775.31 343.93 C767.35,345.11 757.51,345.16 751.74,344.04 C747.26,343.17 746.11,342.28 748.36,341.42 C750.00,339.75 750.00,339.09 744.25,339.32 C736.90,340.09 731.79,337.78 725.61,330.92 C717.64,322.04 717.52,321.35 717.46,281.50 C717.42,255.64 717.06,245.19 716.08,241.50 C712.85,229.39 705.37,218.31 697.79,214.39 C692.14,211.47 673.18,210.90 557.70,210.19 L 444.50,209.50 L 444.19,205.11 L 443.87,200.71 L 543.19,201.45 C654.42,202.50 669.00,202.89 695.50,203.59 L 701.81,206.97 C712.93,212.92 720.78,224.11 724.71,239.60 C726.23,245.61 726.42,250.65 726.14,278.70 C725.87,306.52 726.06,311.69 727.51,316.70 C733.59,337.70 767.12,341.93 803.02,326.24 C811.01,322.75 819.18,316.90 828.25,308.15 C849.66,287.51 858.89,263.45 853.46,242.46 C852.48,238.67 846.75,227.21 837.76,211.00 C815.37,170.69 801.35,146.32 796.88,139.94 C790.51,130.86 783.12,126.05 772.53,124.09 C758.01,121.41 747.65,123.40 713.00,135.54 C697.31,141.04 697.17,141.01 652.00,124.48 C631.38,116.93 606.17,107.72 596.00,104.02 C548.09,86.59 454.31,51.33 407.00,32.96 C394.94,28.28 392.48,27.67 383.94,27.24 C369.30,26.49 361.20,29.35 343.66,41.44 C324.95,54.33 325.41,54.22 286.50,54.73 C268.90,54.97 219.18,54.70 176.00,54.14 C113.74,53.34 96.13,53.38 90.88,54.38 C75.00,57.39 62.24,67.79 57.66,81.43 C55.41,88.12 55.57,92.74 58.25,98.02 C61.11,103.66 64.58,105.59 74.28,106.92 C86.28,108.57 90.64,111.49 99.38,123.70 C104.30,130.58 112.44,137.82 117.91,140.17 C129.28,145.06 137.22,144.05 218.00,127.50 C307.00,111.00 325.42,107.64 351.00,103.02 C387.50,95.98 415.77,90.72 428.68,90.27 C446.83,89.63 455.50,90.59 486.00,96.61 C511.92,101.73 528.65,105.99 536.52,109.47 C542.86,112.27 551.76,120.65 554.87,126.75 C558.41,133.68 561.30,145.84 560.67,151.13 C559.51,160.96 553.12,168.66 543.76,171.53 C537.22,173.53 536.32,173.56 373.00,175.59 C253.61,177.08 243.99,177.33 237.34,179.07 C223.16,182.78 209.78,190.42 188.95,206.70 C159.29,229.87 144.38,244.42 138.90,255.55 C135.56,262.33 135.50,262.69 135.50,275.48 C135.50,287.98 135.62,288.74 138.50,294.37 C142.39,301.97 150.97,311.09 158.33,315.43 C173.97,332.86 210.98,318.08 246.02,252.00 C263.30,214.77 271.36,207.17 285.12,202.88 C290.83,201.11 295.51,201.00 365.59,201.00 L 440.00,201.00 L 440.00,210.02 L 282.41,213.25 C271.02,219.83 268.34,224.12 255.42,252.64 C221.42,305.72 210.98,318.08 187.59,321.22 C157.75,324.88 136.79,314.31 126.00,275.50 C126.00,265.60 127.48,259.00 131.73,250.00 C144.89,232.95 163.80,214.17 213.88,179.17 C238.79,168.89 241.02,168.62 256.50,168.34 C489.00,165.14 538.50,164.49 543.43,161.99 C549.88,158.73 552.33,154.41 551.63,147.50 C549.98,131.25 541.30,119.92 526.80,115.10 C519.09,112.54 500.53,108.32 475.41,103.41 C415.69,99.20 419.07,98.78 378.00,106.88 C341.00,114.00 309.37,119.35 210.51,138.09 C149.27,150.79 135.53,152.90 124.90,151.26 C111.50,149.18 101.28,142.04 91.26,127.75 C83.46,118.38 77.14,116.27 72.21,115.53 C59.03,112.68 54.19,107.91 51.30,73.70 C57.60,60.96 70.74,50.54 85.74,46.38 C99.11,44.83 266.50,45.50 266.50,45.50 C318.88,45.53 326.57,41.89 338.67,33.93 C367.70,17.44 385.00,18.27 406.50,23.31 C454.31,51.33 596.00,104.02 652.00,124.48 C698.61,131.34 696.67,131.18 713.00,135.54 C758.70,112.34 773.93,115.43 804.69,135.11 C819.86,160.49 837.76,211.00 853.46,242.46 C864.65,268.92 858.88,285.20 846.16,301.65 C827.65,325.57 804.02,339.67 775.31,343.93 Z" fill="rgb(42,41,41)"/>
</g>
</svg>
