<svg xmlns="http://www.w3.org/2000/svg" width="683" height="513" viewBox="0 0 683 513">
<g>
<path d="M 273.50 458.51 C262.98,462.80 251.05,458.57 245.36,448.53 C242.67,443.78 242.45,442.29 240.46,415.50 C238.78,392.90 237.93,389.32 234.04,388.30 C232.65,387.94 232.42,387.19 232.93,384.67 C233.52,381.81 233.95,381.49 237.34,381.39 C240.70,381.30 241.42,381.75 244.11,385.66 C247.05,389.93 247.16,390.53 249.02,412.76 C251.39,441.10 251.63,442.67 254.02,446.03 C256.47,449.47 263.13,452.25 266.79,451.36 C268.28,451.00 299.42,434.73 336.00,415.21 C435.62,362.04 486.03,335.10 510.71,321.84 C523.71,314.86 534.71,309.60 537.21,309.18 C539.99,308.70 541.50,307.93 541.50,306.97 C541.50,306.13 545.79,303.20 551.49,300.14 C556.99,297.20 562.67,293.94 564.12,292.91 C568.26,289.97 570.30,284.64 569.77,278.20 C569.37,273.36 568.84,272.24 565.54,269.22 C562.05,266.02 561.40,265.80 556.64,266.24 C552.46,266.62 547.74,268.76 531.29,277.76 C520.18,283.84 508.25,289.82 504.79,291.06 C495.91,294.22 483.35,294.75 471.98,292.44 C464.39,290.90 461.98,290.80 455.78,291.77 C451.78,292.39 426.15,299.45 398.84,307.45 C369.52,316.04 347.44,322.00 344.95,322.00 C334.65,322.00 328.73,317.71 318.71,303.00 C315.52,298.33 304.13,281.93 293.38,266.57 C270.46,233.80 264.99,224.98 260.32,213.21 C251.15,190.07 250.56,178.22 255.41,113.50 C257.39,87.10 259.00,63.61 259.00,61.31 C259.00,54.40 257.72,53.99 236.03,54.03 C223.04,54.05 217.03,54.43 215.91,55.28 C212.52,57.89 212.00,60.77 212.00,76.88 C212.00,92.29 212.08,92.94 214.22,94.44 C215.44,95.30 217.43,96.00 218.63,96.00 C219.85,96.00 221.97,97.37 223.41,99.08 C225.97,102.12 226.00,102.33 226.00,119.11 C226.00,137.64 225.38,140.50 220.37,145.19 C216.30,149.00 212.95,150.00 204.18,150.02 C194.06,150.06 189.00,151.32 186.25,154.50 L 184.00 157.11 L 184.02 238.81 L 184.02 240.22 C184.03,314.88 184.04,325.68 187.61,335.13 C193.77,348.97 200.20,357.24 209.59,365.69 C218.29,373.53 222.92,376.59 228.35,378.08 C231.63,378.98 232.11,379.45 231.61,381.32 C231.00,387.02 230.47,387.17 226.90,386.60 C221.04,385.66 207.07,375.14 191.88,362.86 C184.30,352.41 178.33,335.50 175.50,327.50 L 174.94,157.06 L 177.43,152.13 C181.34,144.42 185.05,142.67 198.98,141.95 C216.38,141.05 217.29,140.07 217.83,121.72 C218.27,106.57 217.82,104.00 214.73,104.00 C211.15,103.99 206.00,100.24 204.44,96.51 C203.38,93.97 203.01,88.67 203.02,76.28 C203.05,58.10 203.96,54.04 209.12,49.32 C213.30,45.48 216.41,45.00 236.92,45.00 C255.84,45.00 256.85,45.10 260.08,47.27 C264.56,50.29 268.00,55.57 267.99,59.40 C267.98,61.10 266.41,84.32 264.49,111.00 C260.62,164.99 260.33,175.93 262.48,188.12 C265.87,207.38 270.91,218.38 287.20,242.00 C330.61,304.98 335.48,312.10 341.24,312.90 C346.13,313.00 354.06,311.24 361.31,309.08 C404.42,296.28 448.38,283.95 454.00,283.09 C462.82,282.42 467.50,283.09 471.98,292.44 C483.35,294.75 495.91,294.22 504.79,291.06 C508.25,289.82 520.18,283.84 531.29,277.76 C547.74,268.76 552.46,266.62 556.64,266.24 C561.40,265.80 562.05,266.02 565.54,269.22 C568.84,272.24 569.37,273.36 569.77,278.20 C570.38,285.60 568.09,290.35 562.07,294.17 C510.00,332.25 452.50,363.00 311.50,438.51 C292.25,448.84 275.15,457.83 273.50,458.51 Z" fill="rgb(41,41,41)"/>
</g>
</svg>
